<svg width="183" height="30" viewBox="0 0 183 30" fill="none" xmlns="http://www.w3.org/2000/svg">
<path d="M10.2969 23.5156C8.97396 23.5156 7.70312 23.2552 6.48438 22.7344C5.27604 22.2135 4.20312 21.4635 3.26562 20.4844C2.33854 19.5052 1.59896 18.3125 1.04688 16.9062C0.494792 15.4896 0.21875 13.8958 0.21875 12.125C0.21875 10.3542 0.489583 8.75 1.03125 7.3125C1.57292 5.86458 2.32292 4.61979 3.28125 3.57812C4.22917 2.54688 5.34896 1.75 6.64062 1.1875C7.93229 0.625 9.3125 0.34375 10.7812 0.34375C11.875 0.34375 12.8646 0.479167 13.75 0.75C14.6354 1.02083 15.4792 1.40104 16.2812 1.89062L16.9219 0.828125H18.1719L18.3125 8.73438H17.0312C16.8646 7.96354 16.6146 7.13021 16.2812 6.23438C15.9479 5.32812 15.5573 4.5625 15.1094 3.9375C14.6094 3.22917 14.0156 2.67708 13.3281 2.28125C12.6406 1.875 11.8542 1.67188 10.9688 1.67188C9.95833 1.67188 9.01562 1.89583 8.14062 2.34375C7.27604 2.79167 6.52604 3.45312 5.89062 4.32812C5.28646 5.17188 4.8125 6.24479 4.46875 7.54688C4.125 8.84896 3.95312 10.3021 3.95312 11.9062C3.95312 13.3229 4.13021 14.625 4.48438 15.8125C4.84896 16.9896 5.36458 18.026 6.03125 18.9219C6.69792 19.8073 7.48438 20.5 8.39062 21C9.30729 21.5 10.3281 21.75 11.4531 21.75C12.2969 21.75 13.0729 21.6198 13.7812 21.3594C14.4896 21.0885 15.1042 20.7344 15.625 20.2969C16.1458 19.8385 16.6042 19.3177 17 18.7344C17.3958 18.151 17.7188 17.5156 17.9688 16.8281L19.1406 17.3906C18.2448 19.5885 17.0573 21.1615 15.5781 22.1094C14.099 23.0469 12.3385 23.5156 10.2969 23.5156ZM37.6231 15.1406C37.6231 16.224 37.4513 17.2917 37.1075 18.3438C36.7638 19.3854 36.2742 20.2708 35.6388 21C34.92 21.8333 34.0867 22.4531 33.1388 22.8594C32.1908 23.2656 31.1283 23.4688 29.9513 23.4688C28.9721 23.4688 28.0398 23.2865 27.1544 22.9219C26.269 22.5469 25.4825 22.0052 24.795 21.2969C24.1179 20.599 23.5763 19.75 23.17 18.75C22.7742 17.7396 22.5763 16.6094 22.5763 15.3594C22.5763 12.9531 23.2742 10.9844 24.67 9.45312C26.0763 7.92188 27.9148 7.15625 30.1856 7.15625C32.3419 7.15625 34.1179 7.88542 35.5138 9.34375C36.92 10.7917 37.6231 12.724 37.6231 15.1406ZM34.3888 15.1719C34.3888 14.3906 34.3106 13.5677 34.1544 12.7031C33.9981 11.8281 33.7638 11.0885 33.4513 10.4844C33.1179 9.83854 32.6804 9.32292 32.1388 8.9375C31.5971 8.54167 30.9356 8.34375 30.1544 8.34375C29.3523 8.34375 28.6648 8.54167 28.0919 8.9375C27.5294 9.33333 27.071 9.875 26.7169 10.5625C26.3835 11.1979 26.1492 11.9219 26.0138 12.7344C25.8783 13.5469 25.8106 14.3333 25.8106 15.0938C25.8106 16.0938 25.8888 17.0208 26.045 17.875C26.2117 18.7188 26.4721 19.474 26.8263 20.1406C27.1804 20.8073 27.6231 21.3333 28.1544 21.7188C28.696 22.0938 29.3627 22.2812 30.1544 22.2812C31.4565 22.2812 32.4877 21.651 33.2481 20.3906C34.0085 19.1302 34.3888 17.3906 34.3888 15.1719ZM53.9806 23H41.5119V22.1719L50.2306 8.85938H48.0744C47.1681 8.85938 46.4598 8.875 45.9494 8.90625C45.439 8.9375 44.9702 9.04167 44.5431 9.21875C44.2515 9.33333 43.9754 9.66146 43.715 10.2031C43.465 10.7448 43.2463 11.4531 43.0588 12.3281H42.1056V7.59375H53.8869V8.23438L45.0275 21.7344C45.4025 21.7448 45.814 21.7552 46.2619 21.7656C46.7098 21.7656 47.1942 21.7656 47.715 21.7656C48.1317 21.7656 48.564 21.7604 49.0119 21.75C49.4702 21.7396 50.0535 21.7135 50.7619 21.6719C51.1785 21.651 51.491 21.5104 51.6994 21.25C51.9181 20.9896 52.0848 20.6927 52.1994 20.3594C52.314 20.0573 52.4494 19.6406 52.6056 19.1094C52.7723 18.5781 52.9181 18.0625 53.0431 17.5625H53.9806V23ZM56.7444 28.0312C56.7444 27.5104 56.885 27.0833 57.1662 26.75C57.4579 26.4271 57.8173 26.2656 58.2444 26.2656C58.5777 26.2656 58.8642 26.3281 59.1037 26.4531C59.3433 26.5781 59.5569 26.7396 59.7444 26.9375C59.9006 27.0938 60.0673 27.3073 60.2444 27.5781C60.4215 27.849 60.5621 28.0729 60.6662 28.25C61.1871 27.9688 61.8069 27.2344 62.5256 26.0469C63.2548 24.8594 63.7808 23.8177 64.1037 22.9219C63.1142 20.4531 62.2183 18.2448 61.4162 16.2969C60.6142 14.349 59.7756 12.3333 58.9006 10.25C58.7027 9.77083 58.3694 9.40104 57.9006 9.14062C57.4319 8.86979 56.9631 8.69792 56.4944 8.625V7.59375H63.5256V8.6875C63.2131 8.69792 62.8381 8.76562 62.4006 8.89062C61.9631 9.00521 61.7444 9.14062 61.7444 9.29688C61.7444 9.35938 61.7652 9.46354 61.8069 9.60938C61.859 9.75521 61.9162 9.90625 61.9787 10.0625C62.3746 11.0938 62.9787 12.5833 63.7912 14.5312C64.6037 16.4688 65.234 18.0208 65.6819 19.1875C66.1506 18.0729 66.635 16.9219 67.135 15.7344C67.6454 14.5365 68.2131 13.125 68.8381 11.5C68.911 11.3021 69.0152 11.0312 69.1506 10.6875C69.286 10.3333 69.3537 10.0312 69.3537 9.78125C69.3537 9.51042 69.1142 9.26042 68.635 9.03125C68.1662 8.79167 67.7183 8.64583 67.2912 8.59375V7.59375H73.01V8.5625C72.6975 8.61458 72.286 8.79688 71.7756 9.10938C71.2652 9.41146 70.885 9.84375 70.635 10.4062C69.3954 13.2812 68.2912 15.901 67.3225 18.2656C66.3642 20.6302 65.635 22.3698 65.135 23.4844C64.4787 24.9427 63.8902 26.0781 63.3694 26.8906C62.859 27.7135 62.359 28.3594 61.8694 28.8281C61.3902 29.2656 60.9527 29.5573 60.5569 29.7031C60.1715 29.8594 59.7704 29.9375 59.3537 29.9375C58.5412 29.9375 57.9006 29.7448 57.4319 29.3594C56.9735 28.974 56.7444 28.5312 56.7444 28.0312ZM108.584 23H99.3812V21.8906C99.6312 21.8698 99.9906 21.8385 100.459 21.7969C100.939 21.7552 101.267 21.6927 101.444 21.6094C101.756 21.4844 101.985 21.2969 102.131 21.0469C102.277 20.7865 102.35 20.4531 102.35 20.0469V12.1562H91.9281V19.875C91.9281 20.2396 91.9854 20.5469 92.1 20.7969C92.225 21.0469 92.4646 21.2656 92.8187 21.4531C92.9958 21.5469 93.3083 21.6406 93.7562 21.7344C94.2146 21.8281 94.574 21.8802 94.8344 21.8906V23H85.6312V21.8906C85.8812 21.8698 86.2406 21.8385 86.7094 21.7969C87.1885 21.7552 87.5167 21.6927 87.6937 21.6094C88.0062 21.4844 88.2354 21.2969 88.3812 21.0469C88.5271 20.7865 88.6 20.4531 88.6 20.0469V4.04688C88.6 3.71354 88.5323 3.41146 88.3969 3.14062C88.2615 2.85938 88.0271 2.64062 87.6937 2.48438C87.4125 2.34896 87.0687 2.22917 86.6625 2.125C86.2667 2.02083 85.9229 1.95833 85.6312 1.9375V0.828125H94.8344V1.9375C94.5427 1.94792 94.1833 1.99479 93.7562 2.07812C93.3396 2.16146 93.0271 2.23958 92.8187 2.3125C92.4646 2.4375 92.225 2.64583 92.1 2.9375C91.9854 3.22917 91.9281 3.54688 91.9281 3.89062V10.7656H102.35V4.04688C102.35 3.71354 102.282 3.41146 102.147 3.14062C102.011 2.85938 101.777 2.64062 101.444 2.48438C101.162 2.34896 100.819 2.22917 100.412 2.125C100.017 2.02083 99.6729 1.95833 99.3812 1.9375V0.828125H108.584V1.9375C108.293 1.94792 107.933 1.99479 107.506 2.07812C107.09 2.16146 106.777 2.23958 106.569 2.3125C106.215 2.4375 105.975 2.64583 105.85 2.9375C105.735 3.22917 105.678 3.54688 105.678 3.89062V19.875C105.678 20.2396 105.735 20.5469 105.85 20.7969C105.975 21.0469 106.215 21.2656 106.569 21.4531C106.746 21.5469 107.058 21.6406 107.506 21.7344C107.965 21.8281 108.324 21.8802 108.584 21.8906V23ZM128.254 15.1406C128.254 16.224 128.082 17.2917 127.739 18.3438C127.395 19.3854 126.905 20.2708 126.27 21C125.551 21.8333 124.718 22.4531 123.77 22.8594C122.822 23.2656 121.76 23.4688 120.582 23.4688C119.603 23.4688 118.671 23.2865 117.786 22.9219C116.9 22.5469 116.114 22.0052 115.426 21.2969C114.749 20.599 114.207 19.75 113.801 18.75C113.405 17.7396 113.207 16.6094 113.207 15.3594C113.207 12.9531 113.905 10.9844 115.301 9.45312C116.707 7.92188 118.546 7.15625 120.817 7.15625C122.973 7.15625 124.749 7.88542 126.145 9.34375C127.551 10.7917 128.254 12.724 128.254 15.1406ZM125.02 15.1719C125.02 14.3906 124.942 13.5677 124.786 12.7031C124.629 11.8281 124.395 11.0885 124.082 10.4844C123.749 9.83854 123.312 9.32292 122.77 8.9375C122.228 8.54167 121.567 8.34375 120.786 8.34375C119.984 8.34375 119.296 8.54167 118.723 8.9375C118.161 9.33333 117.702 9.875 117.348 10.5625C117.015 11.1979 116.78 11.9219 116.645 12.7344C116.51 13.5469 116.442 14.3333 116.442 15.0938C116.442 16.0938 116.52 17.0208 116.676 17.875C116.843 18.7188 117.103 19.474 117.457 20.1406C117.812 20.8073 118.254 21.3333 118.786 21.7188C119.327 22.0938 119.994 22.2812 120.786 22.2812C122.088 22.2812 123.119 21.651 123.879 20.3906C124.64 19.1302 125.02 17.3906 125.02 15.1719ZM148.924 22.7188L143.909 23.0625L143.674 22.8438V20.8906H143.581C143.331 21.151 143.049 21.4323 142.737 21.7344C142.424 22.026 142.065 22.2917 141.659 22.5312C141.19 22.8125 140.737 23.026 140.299 23.1719C139.862 23.3177 139.242 23.3906 138.44 23.3906C137.075 23.3906 136.034 22.9479 135.315 22.0625C134.607 21.1667 134.253 19.8698 134.253 18.1719V10.7969C134.253 10.4219 134.18 10.1094 134.034 9.85938C133.898 9.59896 133.695 9.375 133.424 9.1875C133.237 9.0625 133.003 8.97396 132.721 8.92188C132.44 8.85938 132.143 8.81771 131.831 8.79688V7.78125L136.971 7.40625L137.206 7.625V18.3281C137.206 19.4427 137.456 20.2812 137.956 20.8438C138.456 21.4062 139.055 21.6875 139.753 21.6875C140.325 21.6875 140.836 21.599 141.284 21.4219C141.732 21.2448 142.107 21.0365 142.409 20.7969C142.69 20.5781 142.935 20.349 143.143 20.1094C143.362 19.8594 143.529 19.6302 143.643 19.4219V10.6875C143.643 10.3438 143.57 10.0417 143.424 9.78125C143.279 9.51042 143.075 9.28125 142.815 9.09375C142.628 8.96875 142.346 8.89583 141.971 8.875C141.607 8.84375 141.195 8.81771 140.737 8.79688V7.78125L146.331 7.40625L146.565 7.625V19.8594C146.565 20.2135 146.638 20.5156 146.784 20.7656C146.93 21.0156 147.133 21.2292 147.393 21.4062C147.581 21.5208 147.805 21.599 148.065 21.6406C148.325 21.6719 148.612 21.6927 148.924 21.7031V22.7188ZM162.907 15.4531C163.334 15.8281 163.662 16.2604 163.891 16.75C164.12 17.2396 164.235 17.8385 164.235 18.5469C164.235 19.974 163.699 21.1406 162.626 22.0469C161.563 22.9531 160.183 23.4062 158.485 23.4062C157.589 23.4062 156.761 23.2448 156.001 22.9219C155.251 22.599 154.714 22.3021 154.391 22.0312L154.079 23.0469H152.907L152.751 17.6875H153.829C153.912 18.0938 154.089 18.5677 154.36 19.1094C154.631 19.651 154.959 20.1406 155.344 20.5781C155.751 21.0365 156.235 21.4219 156.798 21.7344C157.37 22.0469 158.011 22.2031 158.719 22.2031C159.719 22.2031 160.49 21.9792 161.032 21.5312C161.574 21.0729 161.844 20.4219 161.844 19.5781C161.844 19.1406 161.756 18.7656 161.579 18.4531C161.412 18.1302 161.162 17.849 160.829 17.6094C160.485 17.3698 160.063 17.1562 159.563 16.9688C159.063 16.7708 158.506 16.5781 157.891 16.3906C157.402 16.2448 156.855 16.0469 156.251 15.7969C155.657 15.5365 155.146 15.2344 154.719 14.8906C154.261 14.526 153.886 14.0781 153.594 13.5469C153.303 13.0156 153.157 12.3906 153.157 11.6719C153.157 10.4115 153.626 9.34375 154.563 8.46875C155.501 7.59375 156.756 7.15625 158.329 7.15625C158.933 7.15625 159.548 7.23438 160.173 7.39062C160.808 7.54688 161.324 7.73438 161.719 7.95312L162.079 7.14062H163.204L163.438 12.0938H162.36C162.141 10.9896 161.667 10.0938 160.938 9.40625C160.219 8.70833 159.339 8.35938 158.298 8.35938C157.443 8.35938 156.771 8.57292 156.282 9C155.792 9.42708 155.548 9.94271 155.548 10.5469C155.548 11.0156 155.626 11.4062 155.782 11.7188C155.949 12.0312 156.193 12.2969 156.516 12.5156C156.829 12.724 157.219 12.9219 157.688 13.1094C158.167 13.2865 158.756 13.4896 159.454 13.7188C160.141 13.9375 160.787 14.1927 161.391 14.4844C162.006 14.776 162.511 15.099 162.907 15.4531ZM182.186 19.375C181.54 20.6042 180.676 21.5833 179.592 22.3125C178.509 23.0417 177.264 23.4062 175.858 23.4062C174.619 23.4062 173.53 23.1875 172.592 22.75C171.665 22.3125 170.9 21.7188 170.296 20.9688C169.691 20.2188 169.238 19.3438 168.936 18.3438C168.645 17.3438 168.499 16.2865 168.499 15.1719C168.499 14.1719 168.655 13.1927 168.967 12.2344C169.29 11.2656 169.759 10.3958 170.374 9.625C170.967 8.88542 171.702 8.29167 172.577 7.84375C173.462 7.38542 174.452 7.15625 175.546 7.15625C176.671 7.15625 177.634 7.33333 178.436 7.6875C179.238 8.04167 179.889 8.52604 180.389 9.14062C180.869 9.72396 181.223 10.4115 181.452 11.2031C181.691 11.9948 181.811 12.8542 181.811 13.7812V14.8125H171.608C171.608 15.8229 171.702 16.7396 171.889 17.5625C172.087 18.3854 172.395 19.1094 172.811 19.7344C173.217 20.3385 173.749 20.8177 174.405 21.1719C175.061 21.5156 175.842 21.6875 176.749 21.6875C177.676 21.6875 178.473 21.474 179.139 21.0469C179.816 20.6094 180.467 19.8281 181.092 18.7031L182.186 19.375ZM178.733 13.5C178.733 12.9167 178.681 12.2917 178.577 11.625C178.483 10.9583 178.327 10.401 178.108 9.95312C177.869 9.47396 177.54 9.08333 177.124 8.78125C176.707 8.47917 176.171 8.32812 175.514 8.32812C174.421 8.32812 173.509 8.78646 172.78 9.70312C172.061 10.6094 171.671 11.875 171.608 13.5H178.733Z" fill="#F1CDB3"/>
</svg>
